<svg id="Icons" height="512" viewBox="0 0 74 74" width="512" xmlns="http://www.w3.org/2000/svg"><path d="m69.844 72h-65.688a1 1 0 0 1 -.965-1.265l1.562-5.683a1 1 0 0 1 .964-.735h62.566a1 1 0 0 1 .964.735l1.562 5.683a1 1 0 0 1 -.965 1.265zm-64.376-2h63.064l-1.011-3.683h-61.042z"/><path d="m40.44 40.01h-2.97a1 1 0 0 1 0-2h2.97a1 1 0 0 1 0 2z"/><path d="m65.61 66.32h-57.22a1 1 0 0 1 -1-1v-26.31a1 1 0 0 1 1-1h12.17a1 1 0 0 1 0 2h-11.17v24.31h55.22v-24.31h-17.17a1 1 0 0 1 0-2h18.17a1 1 0 0 1 1 1v26.31a1 1 0 0 1 -1 1z"/><path d="m30.47 40.01h-2.91a1 1 0 1 1 0-2h2.91a1 1 0 0 1 0 2z"/><path d="m40.44 40.01h-2.97a1 1 0 0 1 0-2h2.97a1 1 0 0 1 0 2z"/><path d="m60.31 40.01h-12.87a1 1 0 0 1 0-2h11.87v-4.52h-44.62v4.52h5.87a1 1 0 0 1 0 2h-6.87a1 1 0 0 1 -1-1v-6.52a1 1 0 0 1 1-1h46.62a1 1 0 0 1 1 1v6.52a1 1 0 0 1 -1 1z"/><path d="m30.47 40.01h-2.91a1 1 0 1 1 0-2h2.91a1 1 0 0 1 0 2z"/><path d="m50.486 33.489h-26.972a1 1 0 0 1 -1-1v-6.754a1 1 0 0 1 1-1h26.972a1 1 0 0 1 1 1v6.754a1 1 0 0 1 -1 1zm-25.972-2h24.972v-4.754h-24.972z"/><path d="m58.344 66.317h-5.739a1 1 0 0 1 -1-1v-13.889a3.87 3.87 0 1 1 7.739 0v13.889a1 1 0 0 1 -1 1zm-4.739-2h3.739v-12.889a1.87 1.87 0 1 0 -3.739 0z"/><path d="m46.028 66.317h-5.739a1 1 0 0 1 -1-1v-13.889a3.87 3.87 0 1 1 7.739 0v13.889a1 1 0 0 1 -1 1zm-4.739-2h3.739v-12.889a1.87 1.87 0 1 0 -3.739 0z"/><path d="m33.711 66.317h-5.739a1 1 0 0 1 -1-1v-13.889a3.87 3.87 0 1 1 7.739 0v13.889a1 1 0 0 1 -1 1zm-4.739-2h3.739v-12.889a1.87 1.87 0 1 0 -3.739 0z"/><path d="m21.4 66.317h-5.744a1 1 0 0 1 -1-1v-13.889a3.87 3.87 0 1 1 7.739 0v13.889a1 1 0 0 1 -.995 1zm-4.739-2h3.739v-12.889a1.87 1.87 0 1 0 -3.739 0z"/><path d="m53.356 26.735h-32.712a1 1 0 0 1 0-2h32.712a1 1 0 1 1 0 2z"/><path d="m36.47 26.735a1 1 0 0 1 -1-1v-22.735a1 1 0 0 1 2 0v22.735a1 1 0 0 1 -1 1z"/><path d="m36.47 14.065a1 1 0 0 1 -1-1v-10.065a1 1 0 0 1 1.447-.895l10.066 5.033a1 1 0 0 1 0 1.789l-10.066 5.033a1 1 0 0 1 -.447.105zm1-9.447v6.829l6.83-3.414z"/></svg>